<svg xmlns="http://www.w3.org/2000/svg" xmlns:xlink="http://www.w3.org/1999/xlink" width="2000" zoomAndPan="magnify" viewBox="0 0 1500 1499.999933" height="2000" preserveAspectRatio="xMidYMid meet" version="1.0"><path fill="#ffffff" d="M 944.113281 495.394531 C 919.609375 523.980469 895.730469 544.894531 892.199219 540.863281 C 872.515625 518.386719 895.597656 0.0234375 781.023438 22.195312 C 725.261719 31.179688 734.875 233.125 740.035156 601.746094 C 617.125 461.421875 359.316406 160.359375 316.523438 197.839844 C 282.261719 227.851562 300.523438 261.269531 453.773438 457.183594 C 531.683594 556.597656 595.273438 643.855469 593.550781 652.375 C 592.929688 660.039062 519.125 647.003906 428.921875 623.628906 C 9.816406 515 207.207031 697.148438 520.90625 783.113281 L 619.460938 809.746094 C 527.894531 899.492188 450.269531 968.289062 446.066406 1018.164062 C 435.988281 1134.949219 588.476562 1029.136719 749.140625 932.652344 L 750.375 1063.949219 C 754.035156 1500 872.046875 1406.59375 889.75 1141.363281 C 895.039062 1057.324219 901.101562 986.746094 904.21875 984.015625 C 904.21875 984.015625 1285.066406 1392.222656 1351.445312 1402.429688 L 1352.476562 1401.527344 C 1490.277344 1420.367188 1327.082031 1246.84375 996.601562 869.539062 C 1345.5 876 1398.0625 880.964844 1397.355469 832.695312 C 1396.585938 779.902344 1285.082031 767.914062 983.789062 727.125 L 1051.722656 651.765625 C 1396.382812 268.515625 1122.730469 281.671875 944.113281 495.394531 Z M 944.113281 495.394531 " fill-opacity="1" fill-rule="nonzero"/></svg>